<svg xmlns="http://www.w3.org/2000/svg" xmlns:xlink="http://www.w3.org/1999/xlink" width="500" zoomAndPan="magnify" viewBox="0 0 375 374.999991" height="500" preserveAspectRatio="xMidYMid meet" version="1.0"><path fill="#efbcc0" d="M 39.4375 369.660156 C 40.695312 370.863281 40.753906 372.855469 39.550781 374.113281 C 38.929688 374.765625 38.097656 375.097656 37.265625 375.097656 C 36.488281 375.097656 35.707031 374.804688 35.089844 374.226562 C 27.652344 367.144531 14.71875 351.828125 11.667969 328.84375 C 8.265625 303.257812 19.183594 284.101562 22.753906 277.816406 C 24.710938 274.390625 26.914062 271.082031 29.316406 267.980469 C 30.382812 266.601562 32.367188 266.347656 33.738281 267.414062 C 35.117188 268.484375 35.363281 270.460938 34.304688 271.839844 C 32.085938 274.714844 30.042969 277.777344 28.238281 280.933594 C 24.910156 286.769531 14.796875 304.535156 17.914062 328.011719 C 20.722656 349.085938 32.605469 363.144531 39.4375 369.660156 Z M 135.535156 293.832031 C 130.730469 293.320312 125.882812 292.660156 121.109375 291.867188 C 109.917969 290.011719 98.828125 287.128906 88.167969 283.308594 C 76.644531 279.1875 65.472656 273.917969 54.949219 267.660156 C 53.449219 266.761719 52.964844 264.832031 53.855469 263.332031 C 54.742188 261.835938 56.671875 261.355469 58.175781 262.234375 C 68.34375 268.292969 79.160156 273.390625 90.285156 277.371094 C 100.605469 281.066406 111.324219 283.847656 122.148438 285.644531 C 126.789062 286.417969 131.515625 287.0625 136.195312 287.554688 C 138.085938 287.753906 141.46875 287.734375 142.886719 285.324219 C 143.425781 284.394531 143.671875 283.347656 143.597656 282.277344 C 143.585938 282.191406 143.625 282.125 143.625 282.042969 C 143.585938 276.519531 143.859375 270.835938 144.464844 265.109375 C 145.847656 252.476562 148.851562 239.851562 151.753906 227.65625 C 152.832031 223.136719 153.910156 218.636719 154.890625 214.136719 C 155.269531 212.445312 156.945312 211.367188 158.65625 211.734375 C 160.355469 212.113281 161.433594 213.796875 161.054688 215.496094 C 160.054688 220.027344 158.976562 224.566406 157.890625 229.113281 C 155.023438 241.128906 152.066406 253.542969 150.734375 265.789062 C 150.117188 271.613281 149.835938 277.398438 149.910156 282.976562 C 149.910156 283.042969 149.882812 283.089844 149.882812 283.148438 C 149.796875 285.03125 149.285156 286.863281 148.324219 288.507812 C 146.261719 292.015625 142.414062 293.9375 137.585938 293.9375 C 136.921875 293.9375 136.242188 293.90625 135.535156 293.832031 Z M 47.597656 249.78125 C 36.472656 250.867188 25.570312 254.207031 15.175781 259.71875 L 7.574219 279.015625 C 7.953125 279.121094 8.367188 279.203125 8.8125 279.269531 C 10.53125 279.527344 11.714844 281.132812 11.449219 282.855469 C 11.214844 284.425781 9.871094 285.539062 8.339844 285.539062 C 8.179688 285.539062 8.019531 285.53125 7.859375 285.503906 C 4.550781 285 2.1875 283.707031 1.929688 283.554688 C 0.558594 282.789062 -0.0351562 281.125 0.542969 279.660156 L 9.730469 256.324219 C 10.003906 255.644531 10.503906 255.066406 11.15625 254.714844 C 22.605469 248.476562 34.65625 244.703125 46.992188 243.503906 C 66.625 241.59375 82.277344 246.519531 94.867188 250.460938 C 102.441406 252.84375 109.140625 255.878906 109.417969 256.003906 C 111.496094 256.949219 113.566406 257.96875 115.609375 259.039062 L 108.113281 204.425781 C 107.949219 202.703125 106.855469 188.738281 111.582031 181.695312 C 112.546875 180.25 114.511719 179.863281 115.949219 180.835938 C 117.402344 181.800781 117.78125 183.765625 116.816406 185.214844 C 113.859375 189.609375 114.066406 200.3125 114.371094 203.714844 L 122.714844 264.4375 C 122.875 265.636719 122.335938 266.820312 121.335938 267.492188 C 120.332031 268.160156 119.03125 268.199219 117.980469 267.585938 C 114.371094 265.4375 110.605469 263.472656 106.808594 261.742188 C 106.742188 261.714844 100.171875 258.734375 92.996094 256.484375 C 80.925781 252.703125 65.914062 248.003906 47.597656 249.78125 Z M 63.097656 30.605469 C 75.574219 19.210938 90.519531 19.210938 96.152344 19.210938 C 104.992188 19.089844 118.574219 21.472656 132.574219 32.5625 C 133.398438 33.222656 134.785156 34.332031 136.347656 35.84375 C 155.921875 54.800781 152.71875 88.042969 151.160156 104.183594 C 150.488281 111.066406 149.078125 125.382812 146.195312 126.023438 C 145.261719 126.222656 139.671875 125.929688 121.003906 98.519531 C 111.070312 83.941406 97.78125 80.554688 81.4375 77.644531 C 67.542969 75.148438 55.640625 72.1875 50.667969 61.011719 C 50.367188 60.339844 49.800781 58.023438 49.429688 56.179688 C 50.460938 50.214844 53.609375 39.292969 63.097656 30.605469 Z M 43.238281 131.859375 C 46.980469 141.105469 50.847656 150.675781 50.761719 159.429688 C 50.734375 163.789062 49.734375 166.992188 47.730469 169.226562 C 46.546875 170.53125 45.015625 171.550781 43.183594 172.242188 C 42.105469 172.636719 41.328125 173.601562 41.167969 174.746094 C 41.007812 175.890625 41.480469 177.023438 42.40625 177.714844 C 42.851562 178.046875 46.945312 180.949219 54.835938 181.675781 C 54.941406 181.6875 55.035156 181.6875 55.128906 181.6875 C 56.746094 181.6875 58.117188 180.457031 58.269531 178.820312 C 58.429688 177.089844 57.152344 175.558594 55.421875 175.398438 C 53.789062 175.246094 52.378906 174.984375 51.179688 174.679688 C 51.613281 174.28125 52.019531 173.875 52.417969 173.441406 C 55.5 170.007812 57.019531 165.441406 57.066406 159.484375 C 57.171875 149.472656 53.058594 139.320312 49.082031 129.496094 C 48.050781 126.941406 47.039062 124.425781 46.085938 121.882812 C 42.765625 112.9375 37.757812 99.429688 39.097656 84.628906 C 39.570312 79.394531 40.820312 74.222656 42.765625 69.152344 C 44.457031 76.472656 50.222656 84.394531 51.652344 86.265625 C 52.21875 87.601562 54.816406 94.917969 49.601562 105.269531 C 48.835938 106.785156 49.410156 108.636719 50.90625 109.449219 C 51.074219 109.542969 54.515625 111.40625 59.308594 111.492188 L 59.894531 116.851562 C 60.027344 117.996094 60.765625 118.980469 61.824219 119.425781 L 64.109375 120.371094 L 63.910156 121.722656 C 63.683594 123.199219 64.535156 124.636719 65.945312 125.144531 L 71.917969 127.339844 C 71.945312 127.613281 71.972656 127.898438 72.003906 128.199219 C 72.476562 132.585938 76.179688 135.960938 80.472656 135.960938 C 80.539062 135.960938 80.59375 135.960938 80.660156 135.960938 C 83.921875 135.90625 87.695312 135.035156 93.269531 129.144531 C 96.324219 125.882812 98.980469 122.347656 101.371094 118.402344 C 105.199219 127.328125 104.578125 137.183594 101.863281 143.820312 C 94.839844 160.902344 77.023438 177.828125 56.445312 186.933594 C 55.648438 187.285156 54.734375 187.644531 53.757812 188.019531 C 48.464844 190.074219 41.207031 192.890625 39.941406 199.554688 C 39.496094 201.835938 36.113281 222.191406 51.640625 235.902344 C 52.246094 236.441406 52.992188 236.695312 53.730469 236.695312 C 54.601562 236.695312 55.46875 236.335938 56.09375 235.628906 C 57.246094 234.320312 57.125 232.328125 55.820312 231.183594 C 42.679688 219.582031 45.980469 201.511719 46.132812 200.738281 C 46.746094 197.503906 52.113281 195.425781 56.039062 193.902344 C 57.113281 193.476562 58.117188 193.089844 58.996094 192.703125 C 80.972656 182.972656 100.085938 164.722656 107.6875 146.210938 C 111.382812 137.21875 111.855469 123.265625 104.984375 111.644531 C 106.355469 108.75 107.59375 105.742188 108.652344 102.613281 C 109.207031 100.96875 108.328125 99.171875 106.675781 98.613281 C 105.019531 98.058594 103.234375 98.9375 102.675781 100.589844 C 101.03125 105.433594 98.988281 110 96.589844 114.160156 C 94.273438 118.128906 91.691406 121.617188 88.675781 124.816406 C 84.167969 129.589844 81.996094 129.628906 80.539062 129.65625 C 80.519531 129.65625 80.511719 129.65625 80.492188 129.65625 C 79.367188 129.65625 78.402344 128.730469 78.28125 127.546875 C 78.128906 126.035156 77.957031 124.652344 77.957031 124.652344 C 77.808594 123.480469 77.023438 122.488281 75.90625 122.082031 L 70.527344 120.105469 L 70.707031 118.867188 C 70.925781 117.441406 70.140625 116.039062 68.796875 115.492188 L 65.960938 114.308594 L 65.246094 107.796875 C 65.148438 106.933594 64.707031 106.148438 64.015625 105.628906 C 63.324219 105.109375 62.445312 104.882812 61.605469 105.023438 C 59.734375 105.335938 58.023438 105.15625 56.691406 104.855469 C 61.652344 92.347656 57.390625 83.609375 57.179688 83.210938 C 57.097656 83.03125 56.984375 82.851562 56.859375 82.691406 C 55.300781 80.699219 52.066406 75.949219 50.140625 71.382812 C 58.222656 79.867188 70.6875 82.117188 80.332031 83.847656 C 95.691406 86.589844 107.234375 89.5 115.796875 102.074219 C 133 127.339844 140.734375 132.378906 145.800781 132.378906 C 146.433594 132.378906 147.019531 132.304688 147.585938 132.179688 C 154.910156 130.523438 156.140625 118.027344 157.453125 104.617188 C 159.089844 87.664062 162.492188 52.378906 140.734375 31.304688 C 138.945312 29.59375 137.433594 28.375 136.460938 27.597656 C 121.148438 15.476562 106.210938 12.90625 96.324219 12.90625 C 90.710938 12.972656 73.277344 12.773438 58.84375 25.953125 C 48.417969 35.503906 44.695312 47.339844 43.371094 54.261719 C 43.210938 54.429688 43.03125 54.5625 42.898438 54.761719 C 37.132812 64.105469 33.730469 73.957031 32.8125 84.0625 C 31.347656 100.289062 36.660156 114.601562 40.222656 124.191406 C 41.148438 126.675781 42.179688 129.25 43.238281 131.859375 Z M 150.628906 333.242188 C 157.21875 343.953125 164.03125 355.023438 162.40625 369.265625 C 162.21875 370.871094 160.855469 372.0625 159.277344 372.0625 C 159.15625 372.0625 159.03125 372.054688 158.917969 372.042969 C 157.1875 371.84375 155.941406 370.285156 156.140625 368.554688 C 157.519531 356.472656 151.566406 346.789062 145.261719 336.550781 C 139.058594 326.46875 132.652344 316.050781 133.320312 302.976562 C 133.417969 301.246094 134.796875 299.882812 136.640625 299.996094 C 138.371094 300.082031 139.710938 301.566406 139.617188 303.304688 C 139.039062 314.414062 144.664062 323.558594 150.628906 333.242188 Z M 271.746094 367.117188 C 272.8125 360.585938 273.550781 347.261719 274.191406 320.042969 C 274.230469 318.40625 274.25 317.261719 274.269531 316.777344 C 275.460938 284.472656 274.324219 255.453125 270.847656 228.136719 L 302.558594 213.585938 C 304.140625 212.859375 304.839844 210.988281 304.109375 209.410156 C 303.382812 207.820312 301.519531 207.121094 299.921875 207.859375 L 251.335938 230.144531 L 173.429688 202.761719 C 173.382812 202.742188 173.335938 202.753906 173.277344 202.742188 C 173.230469 202.722656 173.191406 202.6875 173.136719 202.675781 C 168.25 201.464844 164.648438 196.992188 162.371094 193.742188 C 160.347656 190.859375 159.769531 186.148438 159.25 181.988281 C 159.089844 180.675781 158.9375 179.40625 158.738281 178.214844 C 156.660156 165.300781 149.285156 154.636719 137.980469 148.195312 L 136.761719 147.515625 C 135.996094 147.101562 135.222656 146.675781 134.503906 146.21875 C 141.546875 148.453125 148.796875 150.789062 154.648438 154.71875 C 161.046875 159.023438 164.808594 166.539062 168.449219 173.800781 C 169.394531 175.703125 170.339844 177.574219 171.246094 179.238281 C 171.300781 179.378906 172.917969 182.773438 175.421875 185.800781 C 175.527344 185.921875 175.667969 185.988281 175.792969 186.09375 C 175.960938 186.242188 176.113281 186.394531 176.3125 186.507812 C 176.519531 186.632812 176.738281 186.679688 176.964844 186.746094 C 177.105469 186.792969 177.230469 186.878906 177.378906 186.90625 L 250.117188 197.882812 C 251.121094 198.035156 252.121094 197.695312 252.832031 196.984375 L 295.5 153.757812 C 295.507812 153.757812 295.507812 153.757812 295.507812 153.757812 L 295.527344 153.738281 C 295.734375 153.53125 295.839844 153.414062 295.972656 153.160156 C 297.097656 151.582031 306.910156 142.65625 311.179688 140 C 330.890625 127.734375 340.597656 123.007812 343.226562 122.613281 C 345.230469 124.671875 350.25 130.316406 354.378906 139.222656 C 356.375 143.535156 359.890625 160.675781 361.128906 227.011719 L 361.15625 228.820312 C 362.007812 274.203125 362.878906 321.101562 368.125 367.117188 Z M 311.671875 116.664062 C 316.523438 114.101562 321.03125 110.953125 325.039062 107.199219 C 326.316406 106.019531 326.378906 104.023438 325.191406 102.746094 C 324 101.480469 322.003906 101.402344 320.738281 102.59375 C 316.617188 106.453125 311.9375 109.648438 306.824219 112.097656 C 306.238281 112.382812 305.632812 112.664062 304.972656 112.9375 C 303.175781 113.722656 301.246094 114.421875 299.101562 115.09375 C 292.570312 117.109375 285.421875 113.875 282.492188 107.558594 C 273.710938 88.667969 269.75 70.429688 270.734375 53.34375 C 271.40625 41.46875 277.710938 30.480469 287.585938 23.957031 C 296.953125 17.785156 308.261719 16.402344 318.609375 20.167969 C 344.519531 29.613281 351.070312 66.375 344.359375 88.582031 C 341.03125 99.625 339.878906 109.054688 340.882812 116.671875 C 338.027344 117.476562 331.324219 120.34375 313.949219 130.894531 Z M 374.796875 369.898438 C 369.21875 323.066406 368.320312 275.09375 367.460938 228.695312 L 367.433594 226.890625 C 366.46875 175.425781 364.011719 145.039062 360.109375 136.578125 C 355.417969 126.480469 349.746094 120.21875 347.488281 117.960938 C 346.449219 112.957031 346.210938 104.308594 350.398438 90.398438 C 357.667969 66.335938 351.296875 25.367188 320.765625 14.238281 C 308.515625 9.785156 295.160156 11.410156 284.117188 18.691406 C 272.578125 26.304688 265.222656 39.132812 264.4375 52.984375 C 263.398438 71.121094 267.546875 90.371094 276.773438 110.207031 C 281.019531 119.378906 291.414062 124.066406 300.972656 121.117188 C 302.683594 120.589844 304.242188 120.011719 305.738281 119.425781 L 308.148438 134.46875 C 308.042969 134.535156 307.957031 134.582031 307.855469 134.648438 C 304.027344 137.019531 294.394531 145.304688 291.339844 148.90625 L 239.898438 169.453125 L 187.730469 162.71875 C 186.019531 162.492188 184.421875 163.722656 184.203125 165.441406 C 183.976562 167.171875 185.199219 168.75 186.925781 168.96875 L 239.910156 175.816406 C 240.042969 175.824219 240.171875 175.832031 240.316406 175.832031 C 240.710938 175.832031 241.109375 175.757812 241.476562 175.617188 L 280.441406 160.042969 L 249.476562 191.40625 L 179.5625 180.855469 C 177.976562 178.71875 176.945312 176.550781 176.871094 176.390625 C 175.914062 174.632812 175.007812 172.816406 174.082031 170.972656 C 170.953125 164.722656 167.710938 158.332031 162.738281 153.332031 C 160.507812 149.160156 157.019531 141.671875 156.707031 138.257812 C 156.546875 136.527344 154.976562 135.253906 153.277344 135.414062 C 151.535156 135.574219 150.269531 137.105469 150.421875 138.835938 C 150.621094 140.925781 151.460938 143.601562 152.492188 146.238281 C 147.226562 143.648438 141.5625 141.84375 136.023438 140.09375 C 133.925781 139.421875 131.835938 138.761719 130.050781 138.164062 C 128.984375 137.691406 127.800781 137.75 126.828125 138.324219 C 125.722656 138.988281 125.089844 140.121094 124.945312 141.71875 C 124.777344 143.820312 125.410156 145.945312 126.742188 147.714844 C 128.644531 150.25 131.335938 151.734375 133.71875 153.039062 L 134.851562 153.679688 C 144.617188 159.230469 150.722656 168.070312 152.519531 179.226562 C 152.699219 180.335938 152.851562 181.527344 152.992188 182.753906 C 153.597656 187.644531 154.277344 193.183594 157.199219 197.363281 C 160.023438 201.390625 164.554688 206.882812 171.3125 208.691406 C 171.320312 208.699219 171.332031 208.707031 171.339844 208.707031 L 250.449219 236.515625 C 250.789062 236.640625 251.136719 236.695312 251.496094 236.695312 C 251.941406 236.695312 252.386719 236.601562 252.8125 236.410156 L 264.824219 230.898438 C 268.066406 257.296875 269.117188 285.359375 267.972656 316.542969 C 267.953125 317.035156 267.925781 318.214844 267.886719 319.898438 C 267.027344 356.09375 265.867188 365.738281 265.167969 368.082031 C 264.617188 368.660156 264.285156 369.433594 264.296875 370.292969 C 264.296875 372.023438 265.703125 373.425781 267.445312 373.425781 L 371.667969 373.425781 C 372.566406 373.425781 373.425781 373.035156 374.023438 372.363281 C 374.625 371.695312 374.902344 370.796875 374.796875 369.898438 " fill-opacity="1" fill-rule="nonzero"/></svg>