<svg xmlns="http://www.w3.org/2000/svg" xmlns:xlink="http://www.w3.org/1999/xlink" width="500" zoomAndPan="magnify" viewBox="0 0 375 374.999991" height="500" preserveAspectRatio="xMidYMid meet" version="1.0"><path fill="#efbcc0" d="M 190.386719 -0.00390625 C 185.792969 -0.00390625 182.910156 0.640625 179.121094 2.515625 C 172.488281 5.796875 168.488281 10.925781 168.082031 16.675781 C 167.714844 21.84375 170.230469 27.175781 174.796875 30.902344 C 175.320312 31.332031 175.640625 31.730469 175.507812 31.785156 C 174.320312 32.300781 171.777344 34.28125 169.890625 36.15625 C 165.75 40.273438 163.234375 45.011719 161.890625 51.238281 C 161.652344 52.339844 161.566406 53.976562 161.519531 56.464844 C 161.433594 58.113281 161.417969 59.882812 161.460938 61.71875 C 161.449219 66.789062 161.398438 68.039062 161.113281 67.917969 C 159.664062 67.292969 158.777344 67.097656 158.027344 67.234375 C 156.0625 67.597656 154.472656 69.707031 154.273438 72.214844 C 153.894531 76.910156 158.402344 82.933594 163.515625 84.5625 C 163.773438 84.644531 164.140625 85.609375 164.660156 87.5625 C 166.332031 93.882812 168.460938 99.425781 171.742188 105.976562 C 172.710938 107.914062 173.433594 109.613281 173.34375 109.753906 C 172.984375 110.339844 166.480469 114.375 163.5 115.863281 C 160.324219 117.449219 157.328125 118.53125 147.546875 121.617188 C 141.511719 123.527344 138.621094 124.660156 136.027344 126.148438 C 124.28125 132.886719 118.3125 144.589844 117.097656 163.265625 C 116.84375 167.152344 116.292969 177.289062 115.894531 185.28125 C 115.273438 197.792969 115.082031 207.859375 115.074219 228.714844 C 115.058594 253.433594 115.046875 253.136719 116.617188 262.269531 C 116.988281 264.425781 117.261719 266.21875 117.226562 266.253906 C 117.191406 266.292969 115.191406 265.398438 112.777344 264.269531 C 96.097656 256.46875 79.742188 250.492188 59.84375 244.933594 C 36.515625 238.414062 32.574219 237.589844 25.929688 237.828125 C 19.84375 238.050781 14.800781 239.589844 10.339844 242.59375 C 6.9375 244.882812 3.460938 249.074219 2.0625 252.570312 C 0.550781 256.339844 0.285156 261.804688 1.40625 265.960938 C 2.976562 271.78125 8.382812 279.714844 15.925781 287.277344 C 25.601562 296.976562 36.890625 304.648438 56.117188 314.597656 C 72.726562 323.191406 85.355469 327.933594 114.132812 336.386719 C 125.054688 339.59375 128.121094 340.828125 134.578125 344.601562 C 143.496094 349.824219 149.605469 354.613281 156.042969 361.4375 C 161.742188 367.476562 165.347656 369.347656 169.429688 368.382812 C 169.675781 368.324219 169.820312 368.621094 169.945312 369.421875 C 170.441406 372.6875 172.742188 374.253906 177.535156 374.597656 C 182.628906 374.957031 186.792969 374.261719 190.996094 372.347656 C 194.015625 370.972656 195.992188 369.492188 200.015625 365.589844 C 202.160156 363.511719 204.609375 361.3125 205.457031 360.707031 C 207.503906 359.246094 210.246094 357.984375 214.304688 356.640625 C 217.78125 355.488281 219.191406 355.140625 228.511719 353.171875 C 235.648438 351.660156 241.449219 349.859375 257.089844 344.296875 C 259.148438 343.5625 264.34375 341.890625 268.632812 340.582031 C 272.917969 339.273438 277.441406 337.820312 278.683594 337.351562 C 279.929688 336.886719 284.75 335.214844 289.394531 333.632812 C 304.496094 328.503906 310.695312 325.71875 326.425781 317.007812 C 330.625 314.679688 337.15625 311.21875 340.941406 309.316406 C 354.882812 302.304688 360.359375 298.871094 366.367188 293.378906 C 371.699219 288.507812 374.171875 283.582031 374.519531 277.148438 C 374.757812 272.757812 374 268.722656 372.085938 264.175781 C 368.925781 256.683594 364.171875 252.5625 356.429688 250.609375 C 348.925781 248.71875 340.246094 249.082031 327.949219 251.804688 C 325.660156 252.3125 318.589844 253.703125 312.242188 254.894531 C 294.511719 258.222656 292.304688 258.734375 278.566406 262.75 C 269.582031 265.378906 261.40625 267.632812 260.328125 267.785156 C 260.019531 267.828125 259.78125 267.757812 259.804688 267.628906 C 259.824219 267.496094 260.0625 266.53125 260.328125 265.484375 C 261.378906 261.359375 262.101562 256.363281 263.574219 243.113281 C 265.4375 226.324219 267.257812 205.882812 268.457031 188.253906 C 269.410156 174.304688 269.351562 161.730469 268.308594 155.375 C 267.792969 152.234375 266.414062 148.613281 264.878906 146.390625 C 262.363281 142.734375 256.019531 136.609375 252.15625 134.101562 C 247.019531 130.761719 242.617188 129.175781 232.394531 126.972656 C 229.644531 126.378906 226.59375 125.628906 225.609375 125.300781 C 223.539062 124.613281 217.769531 121.402344 214.910156 119.347656 C 212.980469 117.960938 209.1875 114.191406 209.1875 113.664062 C 209.1875 113.515625 209.554688 112.855469 210.003906 112.1875 C 213.359375 107.203125 215.953125 100.71875 218.5 90.929688 C 219.539062 86.949219 219.792969 86.234375 220.339844 85.816406 C 222.234375 84.347656 226.179688 80.492188 227.339844 78.972656 C 231 74.191406 231.320312 69.929688 228.253906 66.839844 C 226.898438 65.476562 225.574219 65.035156 223.855469 65.382812 L 222.691406 65.617188 L 222.855469 62.378906 C 223.132812 56.863281 222.359375 51.707031 220.621094 47.535156 C 219.695312 45.308594 217.0625 40.839844 215.285156 38.480469 C 213.695312 36.367188 210.980469 33.742188 208.980469 32.386719 C 208.179688 31.839844 207.523438 31.335938 207.523438 31.261719 C 207.523438 31.191406 207.722656 30.84375 207.96875 30.496094 C 209.734375 27.992188 210.632812 24.6875 210.789062 20.109375 C 210.957031 15.113281 210.144531 12.160156 207.5625 8.402344 C 206.511719 6.871094 203.703125 4.058594 202.058594 2.890625 C 199.527344 1.089844 195.121094 -0.00390625 190.386719 -0.00390625 Z M 188.796875 4.40625 L 190.269531 4.410156 C 191.046875 4.410156 191.589844 4.417969 192.160156 4.421875 C 193.894531 4.519531 195.539062 4.75 196.761719 5.117188 C 199.710938 6 203.515625 9.453125 205.066406 12.648438 C 206.28125 15.15625 206.652344 17.101562 206.472656 19.96875 C 206.382812 21.332031 206.269531 22.515625 206.21875 22.597656 C 206.167969 22.683594 204.957031 22.464844 203.527344 22.113281 C 195.769531 20.203125 187.695312 20.007812 180.714844 21.554688 C 179.257812 21.878906 177.136719 22.457031 176.003906 22.839844 L 174.179688 23.457031 C 174.054688 23.453125 173.957031 23.429688 173.875 23.390625 L 173.488281 22.480469 C 171.707031 18.328125 172.292969 14.007812 175.09375 10.683594 C 176.636719 8.851562 180.988281 6.152344 184.082031 5.109375 C 185.242188 4.71875 186.953125 4.488281 188.796875 4.40625 Z M 190.757812 27.003906 C 193.710938 27.003906 196.699219 27.144531 198.359375 27.433594 C 201.195312 27.925781 203.441406 28.441406 203.652344 28.652344 C 203.734375 28.734375 203.683594 28.921875 203.542969 29.0625 C 203.351562 29.253906 202.570312 29.1875 200.703125 28.828125 C 194.277344 27.585938 189.117188 27.542969 183.84375 28.691406 C 182.925781 28.890625 182.015625 29.09375 181.820312 29.140625 C 181.621094 29.1875 181.355469 29.195312 181.222656 29.152344 C 181.09375 29.109375 180.585938 29.007812 180.09375 28.925781 C 178.3125 28.625 179.136719 28.253906 183.367188 27.449219 C 184.886719 27.15625 187.804688 27.007812 190.757812 27.007812 Z M 192.886719 32.441406 C 199.082031 32.601562 203.082031 33.589844 206.363281 35.765625 C 211.582031 39.230469 216.839844 47.671875 218.25 54.855469 C 218.550781 56.378906 218.359375 67.066406 218.027344 67.410156 C 217.800781 67.640625 211.164062 63.613281 208.59375 61.683594 C 204.695312 58.761719 200.757812 54.324219 198.535156 50.351562 C 197.511719 48.519531 195.839844 44.53125 195.375 42.800781 C 194.808594 40.695312 192.945312 40.003906 191.558594 41.390625 C 190.71875 42.230469 190.710938 42.453125 191.429688 44.929688 C 192.144531 47.390625 192.011719 48.1875 190.261719 51.761719 C 188.769531 54.816406 187.261719 56.882812 184.605469 59.519531 C 181.351562 62.753906 177.886719 65.277344 171.796875 68.84375 C 167.042969 71.625 166.363281 71.960938 166.242188 71.582031 C 165.996094 70.835938 165.636719 65.503906 165.636719 62.699219 C 165.640625 58.5625 166.25 51.910156 166.8125 49.855469 C 168.027344 45.414062 169.777344 42.460938 173.234375 39.027344 C 178.394531 33.90625 183.488281 32.195312 192.886719 32.441406 Z M 194.890625 52.980469 C 194.992188 53.097656 195.625 54 196.296875 54.988281 C 200.074219 60.535156 206.222656 65.839844 214.484375 70.6875 C 216.230469 71.707031 217.042969 72.324219 217.042969 72.613281 C 217.042969 72.847656 217.164062 73.308594 217.316406 73.636719 C 217.71875 74.523438 217.058594 78.414062 215.234375 85.914062 C 212.632812 96.609375 210.894531 101.753906 208.171875 106.808594 C 205.222656 112.28125 200.078125 117.585938 197.050781 118.265625 C 192.144531 119.375 182.609375 115.054688 179.140625 110.152344 C 175.972656 105.675781 171.878906 96.722656 169.695312 89.484375 C 168.683594 86.136719 167.191406 79.757812 166.9375 77.703125 L 166.792969 76.542969 C 166.804688 76.527344 166.804688 76.515625 166.816406 76.5 L 168.542969 75.625 C 170.953125 74.398438 175.597656 71.714844 178.125 70.085938 C 185.632812 65.238281 191.210938 59.691406 193.878906 54.410156 C 194.335938 53.511719 194.789062 52.867188 194.890625 52.980469 Z M 224.554688 70.535156 C 224.726562 70.523438 224.875 70.566406 224.988281 70.675781 C 225.410156 71.101562 225.1875 72.835938 224.539062 74.113281 C 223.851562 75.472656 221.589844 78.132812 221.574219 77.601562 C 221.570312 77.414062 221.6875 76.316406 221.835938 75.160156 C 222.039062 73.5625 222.269531 72.800781 222.785156 71.984375 C 223.324219 71.136719 224.042969 70.574219 224.554688 70.535156 Z M 158.933594 71.882812 C 159.25 71.800781 159.777344 72.289062 160.195312 73.074219 C 160.433594 73.527344 160.933594 74.164062 161.3125 74.492188 C 161.898438 75 162.042969 75.375 162.300781 77.058594 C 162.464844 78.144531 162.550781 79.085938 162.484375 79.148438 C 162.242188 79.390625 159.824219 76.472656 159.277344 75.277344 C 158.710938 74.046875 158.46875 72.296875 158.8125 71.949219 C 158.847656 71.914062 158.890625 71.894531 158.933594 71.882812 Z M 175.988281 113.296875 L 177.535156 114.800781 C 181.457031 118.609375 185.652344 120.882812 191.273438 122.242188 C 194.898438 123.117188 197.476562 122.984375 199.949219 121.800781 C 201.804688 120.914062 204.039062 119.328125 205.34375 117.96875 L 206.140625 117.140625 L 208.675781 119.679688 C 211.675781 122.683594 214.609375 124.714844 219.183594 126.964844 C 220.953125 127.832031 222.429688 128.628906 222.464844 128.734375 C 222.589844 129.085938 217.738281 133.757812 215.527344 135.417969 C 209.960938 139.59375 202.511719 143.359375 197.875 144.34375 C 191.757812 145.636719 185.179688 143.226562 179.480469 137.601562 C 175.65625 133.828125 172.675781 129.378906 169.863281 123.257812 C 167.464844 118.035156 167.503906 118.703125 169.53125 117.585938 C 170.484375 117.058594 172.324219 115.878906 173.625 114.960938 Z M 163.816406 120.742188 C 163.964844 120.800781 164.292969 121.371094 164.546875 122.007812 C 165.953125 125.550781 169.46875 132.125 171.46875 134.941406 C 174.414062 139.097656 177.527344 142.210938 181.152344 144.625 C 183.628906 146.273438 185.691406 147.234375 188.808594 148.195312 C 191.234375 148.941406 195.550781 149.199219 198.085938 148.753906 C 201.691406 148.117188 205.957031 146.386719 210.824219 143.589844 C 217.5 139.753906 221.628906 136.546875 225.203125 132.417969 C 226.738281 130.648438 227.261719 130.1875 227.632812 130.285156 C 227.894531 130.355469 230.464844 130.960938 233.347656 131.632812 C 243.734375 134.054688 248.570312 136.195312 253.363281 140.5 C 254.136719 141.191406 255.515625 142.316406 256.433594 143 C 259.824219 145.53125 261.746094 147.796875 263.269531 151.050781 C 264.097656 152.820312 264.09375 152.796875 264.640625 164.585938 C 264.878906 169.789062 264.664062 182.839844 264.332031 183.167969 C 264.125 183.378906 258.488281 184.71875 255.359375 185.300781 C 251.632812 186 245.585938 186.84375 245.355469 186.703125 C 245.269531 186.648438 245.128906 185.878906 245.046875 184.988281 C 244.710938 181.367188 243.066406 177.039062 240.800781 173.820312 C 240.234375 173.011719 238.59375 170.992188 237.152344 169.332031 C 232.316406 163.746094 231.070312 162.203125 229.652344 160.050781 C 227.890625 157.378906 227.824219 157.300781 227.40625 157.460938 C 227.035156 157.605469 225.847656 160.902344 225.847656 161.792969 C 225.847656 162.769531 229.785156 167.820312 233.949219 172.191406 C 236.4375 174.800781 237.3125 175.972656 238.417969 178.164062 C 240.019531 181.347656 241.082031 185.914062 241.082031 189.636719 C 241.082031 192.039062 240.371094 195.707031 239.261719 199.058594 C 238.449219 201.515625 235.09375 208.171875 233.078125 211.339844 C 232.199219 212.714844 231.101562 214.46875 230.636719 215.238281 C 230.171875 216.007812 229.570312 216.773438 229.304688 216.945312 C 228.792969 217.273438 226.988281 217.636719 221.089844 218.589844 C 214.394531 219.671875 209.535156 220.105469 198.242188 220.628906 C 188.796875 221.070312 173.230469 221.128906 170.164062 220.734375 C 163.300781 219.859375 157.597656 218.484375 149.472656 215.746094 C 143.878906 213.859375 142.84375 213.382812 142.109375 212.335938 C 141.394531 211.316406 139.265625 204.730469 138.992188 202.695312 C 138.496094 199 138.820312 192.496094 139.722656 188.015625 C 140.433594 184.5 141.820312 181.015625 143.914062 177.496094 C 146.351562 173.394531 147.640625 171.917969 152.171875 168.046875 C 156.484375 164.359375 156.238281 164.757812 156.5 161.027344 C 156.609375 159.476562 156.574219 158.761719 156.386719 158.644531 C 156.230469 158.546875 155.46875 159.125 154.558594 160.035156 C 153.703125 160.890625 151.535156 162.851562 149.738281 164.386719 C 147.945312 165.925781 145.785156 167.882812 144.941406 168.734375 C 143.023438 170.675781 140.179688 175.003906 138.621094 178.351562 L 137.433594 180.910156 L 134.339844 180.789062 C 132.539062 180.71875 129.402344 180.359375 126.839844 179.925781 C 120.988281 178.9375 120.652344 178.84375 120.65625 178.191406 C 120.664062 175.785156 121.671875 160.253906 121.964844 157.960938 C 123.324219 147.425781 126.582031 139.917969 132.109375 134.574219 C 136.660156 130.175781 139.285156 128.839844 150.121094 125.40625 C 153.875 124.214844 158.433594 122.652344 160.246094 121.9375 C 162.058594 121.21875 163.667969 120.679688 163.816406 120.742188 Z M 120.484375 183.34375 C 120.546875 183.285156 122.082031 183.503906 123.898438 183.832031 C 127.742188 184.527344 130.261719 184.875 133.402344 185.136719 C 134.640625 185.242188 135.699219 185.371094 135.753906 185.425781 C 135.804688 185.476562 135.699219 186.164062 135.511719 186.949219 C 134.898438 189.53125 134.445312 194.136719 134.410156 198.070312 C 134.378906 202.261719 134.695312 204.550781 135.800781 208.097656 C 136.414062 210.066406 139.265625 215.800781 140.359375 217.265625 C 141.046875 218.1875 141.179688 217.609375 139.121094 222.644531 C 137.765625 225.96875 136.746094 229.503906 136.066406 233.257812 C 135.617188 235.742188 135.542969 237.011719 135.535156 242.21875 C 135.53125 242.742188 135.535156 243.269531 135.546875 243.800781 C 135.570312 250.285156 135.847656 253.023438 137.089844 259.058594 C 139.277344 269.667969 142.589844 277.460938 148.269531 285.375 C 149.460938 287.039062 149.6875 287.503906 149.585938 288.09375 C 149.519531 288.488281 149.34375 290.90625 149.195312 293.46875 C 148.625 303.300781 149.675781 309.90625 153.28125 319.15625 C 155.421875 324.648438 157.347656 327.261719 161.332031 330.089844 C 162.585938 330.976562 164.070312 332.203125 164.632812 332.808594 C 167.585938 336.015625 171.109375 343.078125 171.109375 345.792969 C 171.109375 346.691406 172.476562 349.625 174.109375 352.230469 C 175.148438 353.890625 175.824219 355.703125 176.015625 357.332031 C 176.15625 358.511719 176.125 358.636719 175.601562 358.910156 C 175.289062 359.074219 174.683594 359.511719 174.253906 359.886719 C 173.914062 360.183594 173.621094 360.378906 173.449219 360.460938 C 173.359375 360.480469 173.285156 360.503906 173.183594 360.515625 C 173.019531 360.488281 172.539062 360.417969 171.941406 360.339844 C 170.769531 360.179688 170.679688 360.105469 165.960938 355.3125 C 159.171875 348.421875 156.625 345.453125 152.5 339.621094 C 149.742188 335.71875 147.597656 332.277344 145.761719 328.792969 C 145.003906 327.351562 143.757812 325.148438 142.992188 323.894531 C 141.269531 321.066406 140.269531 318.90625 138.980469 315.226562 C 137.570312 311.203125 136.492188 308.714844 133.152344 301.78125 C 128.554688 292.222656 127.820312 290.109375 124.023438 275.480469 C 122.207031 268.492188 120.667969 261.007812 120.078125 256.324219 C 119.621094 252.671875 119.226562 240.910156 119.226562 230.847656 C 119.226562 213.703125 120.019531 183.8125 120.484375 183.34375 Z M 264.082031 187.855469 C 264.347656 188.117188 261.019531 227.113281 259.886719 237.042969 C 259.503906 240.382812 258.914062 245.628906 258.578125 248.707031 C 257.210938 261.101562 256 266.5 252.730469 274.765625 C 249.261719 283.527344 241.640625 298.707031 237.910156 304.28125 C 232.390625 312.523438 224.867188 321.621094 220.375 325.480469 C 216.644531 328.691406 213.617188 331.785156 212.007812 334.042969 C 211.269531 335.082031 209.527344 338.058594 208.136719 340.652344 C 205.074219 346.382812 204.644531 347.019531 202.726562 348.699219 C 196.957031 353.742188 191.09375 356.363281 183.878906 357.125 C 180.050781 357.527344 180.390625 357.507812 180.390625 357.34375 C 180.390625 357.273438 180.222656 356.398438 180.019531 355.40625 C 179.53125 353.054688 178.929688 351.554688 177.625 349.464844 C 176.613281 347.84375 175.632812 345.519531 175.632812 344.75 C 175.632812 344.28125 177.363281 343.417969 181.210938 341.964844 C 186.5625 339.945312 187.601562 339.082031 189.507812 335.078125 C 190.382812 333.246094 190.878906 332.535156 192.042969 331.457031 C 193.453125 330.152344 194.15625 329.816406 196.132812 329.511719 C 197.472656 329.300781 198.242188 328.574219 198.242188 327.519531 C 198.242188 327.035156 198.078125 326.402344 197.878906 326.117188 C 197.476562 325.542969 196.195312 325.109375 194.902344 325.105469 C 193.703125 325.101562 187.609375 326.882812 185.125 327.957031 C 182.730469 328.996094 182.292969 329.277344 179.289062 331.691406 C 176.972656 333.550781 174.570312 335.101562 174.007812 335.101562 C 173.742188 335.101562 173.699219 334.886719 173.824219 334.117188 C 174.273438 331.296875 176.636719 328.570312 179.972656 327.015625 C 182.699219 325.742188 185.203125 325.03125 190.8125 323.921875 C 195.84375 322.929688 196.347656 322.773438 196.867188 322.03125 C 197.042969 321.78125 197.984375 321.226562 198.960938 320.792969 C 204.214844 318.472656 207.484375 315.667969 212.328125 309.320312 C 213.511719 307.769531 215.4375 305.308594 216.613281 303.84375 C 219.210938 300.605469 220.917969 297.890625 222.609375 294.304688 C 224.421875 290.46875 226.386719 287.214844 228.234375 285 C 232.703125 279.644531 235.847656 275.128906 237.753906 271.332031 C 240.367188 266.128906 241.269531 262.234375 241.558594 254.894531 C 242.042969 242.671875 240.4375 234.402344 235.828125 225.382812 C 234.382812 222.546875 234.105469 221.816406 234 220.519531 C 233.894531 219.175781 233.964844 218.808594 234.585938 217.480469 C 234.976562 216.644531 235.949219 214.925781 236.746094 213.660156 C 241.464844 206.175781 244.144531 199.800781 244.878906 194.324219 C 245.328125 190.949219 245.261719 191.109375 246.195312 191.109375 C 248.386719 191.109375 255.792969 189.804688 261.167969 188.472656 C 262.726562 188.085938 264.039062 187.808594 264.082031 187.855469 Z M 146.167969 219.226562 C 146.683594 219.277344 147.441406 219.585938 148.726562 220.054688 C 155.90625 222.675781 163.359375 224.367188 171.226562 225.164062 C 174.363281 225.480469 192.074219 225.324219 201.691406 224.894531 C 210.617188 224.5 218.25 223.648438 224.261719 222.378906 C 228.285156 221.53125 228.753906 221.753906 230.914062 225.5 C 235.488281 233.453125 237.273438 240.628906 237.273438 251.085938 C 237.273438 257.339844 236.542969 263.191406 235.40625 266.011719 C 234.617188 267.976562 232.78125 271.53125 231.671875 273.253906 C 228.863281 277.609375 223.695312 283.460938 218.710938 287.933594 C 214.640625 291.582031 208.28125 295.308594 204.28125 296.390625 C 198.253906 298.015625 194.410156 298.824219 191.136719 299.152344 C 188.902344 299.375 181.441406 299.433594 179.082031 299.242188 C 171.035156 298.597656 163.695312 295.425781 157.9375 290.117188 C 153.0625 285.625 147.5625 277.21875 144.617188 269.769531 C 142.582031 264.617188 141.03125 258.082031 140.265625 251.445312 C 139.757812 247.015625 139.683594 237.800781 140.128906 235.023438 C 140.808594 230.816406 142.398438 225.691406 144.304688 221.558594 C 145.132812 219.765625 145.3125 219.140625 146.167969 219.226562 Z M 25.929688 242.109375 C 26.78125 242.082031 27.679688 242.089844 28.667969 242.132812 C 32.605469 242.304688 35.171875 242.800781 43.542969 245.003906 C 75.304688 253.363281 93.300781 259.675781 114.109375 269.753906 L 118.59375 271.925781 C 118.609375 271.945312 118.625 271.960938 118.640625 271.980469 L 119.429688 275.136719 C 123.097656 289.757812 124.941406 295.144531 129.167969 303.566406 C 132.394531 309.996094 132.777344 310.960938 132.484375 311.917969 C 132.347656 312.363281 132.128906 312.730469 132 312.730469 C 131.625 312.730469 124.109375 308.078125 121.5 306.230469 C 118.667969 304.226562 115.730469 301.867188 109.585938 296.667969 C 103.101562 291.179688 101.835938 290.195312 98.636719 288.167969 C 94.664062 285.644531 90.46875 283.335938 84.425781 280.347656 C 76.726562 276.535156 72.714844 275.324219 61.226562 273.34375 C 53.152344 271.953125 49.453125 271.242188 45.566406 270.34375 C 39.070312 268.839844 35.761719 268.589844 34.011719 269.472656 C 32.730469 270.121094 32.367188 270.910156 32.835938 272.039062 C 33.269531 273.085938 34.28125 273.460938 36.691406 273.460938 C 38.953125 273.460938 40.992188 273.789062 47.824219 275.25 C 50.507812 275.824219 54.953125 276.667969 57.703125 277.132812 C 71.320312 279.414062 77.367188 281.238281 84.835938 285.308594 C 98.132812 292.558594 97.804688 292.335938 107.324219 300.453125 C 115.375 307.320312 119.527344 310.382812 126.367188 314.503906 C 128.261719 315.648438 130.039062 316.722656 130.3125 316.898438 C 130.808594 317.210938 130.808594 317.214844 130.382812 319.3125 C 129.507812 323.644531 128.746094 330.863281 128.746094 334.792969 C 128.746094 336.664062 128.644531 336.777344 127.53125 336.171875 C 126.574219 335.652344 121.097656 333.875 115.058594 332.128906 C 112.050781 331.253906 106 329.421875 101.613281 328.054688 C 81.683594 321.835938 71.105469 317.597656 56.988281 310.183594 C 40.324219 301.429688 30.089844 294.648438 21.050781 286.371094 C 13.417969 279.378906 7 270.140625 5.332031 263.742188 C 4.558594 260.777344 5.066406 256.664062 6.605469 253.371094 C 8.933594 248.398438 12.238281 245.644531 18.34375 243.605469 C 21.214844 242.644531 23.367188 242.199219 25.929688 242.109375 Z M 346.53125 253.84375 C 347.285156 253.863281 348.03125 253.898438 348.769531 253.949219 C 355.996094 254.46875 361.65625 256.515625 364.363281 259.59375 C 366.414062 261.921875 368.683594 266.632812 369.65625 270.585938 C 370.265625 273.054688 370.378906 278.0625 369.875 280.121094 C 368.585938 285.382812 363.84375 290.824219 356.035156 296 C 352.585938 298.28125 349.175781 300.183594 341.398438 304.160156 C 334.480469 307.695312 325.914062 312.273438 319.144531 316.050781 C 309.582031 321.386719 300.949219 325.089844 286.65625 329.988281 C 282.207031 331.515625 276.585938 333.441406 274.164062 334.273438 C 271.742188 335.105469 268.207031 336.214844 266.308594 336.734375 C 262.933594 337.660156 257.347656 339.542969 246.53125 343.394531 C 238.652344 346.199219 233.566406 347.683594 227.609375 348.910156 C 226.351562 349.167969 225.1875 349.378906 225.023438 349.378906 C 224.804688 349.378906 224.902344 348.65625 225.375 346.703125 C 226.164062 343.464844 226.941406 338.960938 227.296875 335.578125 C 227.441406 334.203125 227.644531 332.988281 227.746094 332.878906 C 227.847656 332.769531 229.203125 332.171875 230.757812 331.542969 C 239.660156 327.960938 247.445312 322.992188 256.550781 315.09375 C 259.910156 312.179688 261.789062 310.441406 270.683594 302.035156 C 277.75 295.359375 281.835938 292.199219 288.203125 288.503906 C 292.246094 286.15625 300.039062 282.441406 306.152344 279.945312 C 312.460938 277.371094 312.910156 277.058594 312.621094 275.5 C 312.285156 273.71875 310.335938 273.402344 307.421875 274.660156 C 306.472656 275.070312 304.304688 275.976562 302.605469 276.671875 C 291.503906 281.21875 281.046875 287.183594 274.402344 292.765625 C 272.894531 294.027344 268.773438 297.820312 265.238281 301.195312 C 251.980469 313.855469 243.207031 320.75 235.144531 324.84375 C 231.953125 326.46875 227.675781 328.238281 225.96875 328.648438 C 225.3125 328.804688 224.570312 328.996094 224.320312 329.070312 C 223.949219 329.183594 223.992188 329.054688 224.558594 328.386719 C 229.996094 321.96875 237.078125 313.082031 239.96875 309.046875 C 242.808594 305.085938 244.558594 301.992188 249.410156 292.378906 C 253.753906 283.769531 255.171875 280.667969 257.078125 275.601562 C 257.59375 274.226562 258.101562 273.011719 258.203125 272.90625 C 258.308594 272.796875 260.085938 272.285156 262.152344 271.765625 C 267.53125 270.417969 275.015625 268.351562 283.925781 265.746094 C 294.070312 262.78125 297.046875 262.121094 315.097656 258.828125 C 319.089844 258.097656 324.464844 257.023438 327.042969 256.433594 C 335.464844 254.507812 341.246094 253.726562 346.53125 253.84375 Z M 188.191406 281.355469 C 185.730469 281.175781 183.695312 282.625 182.242188 285.589844 C 180.839844 288.453125 183.1875 292.882812 186.519531 293.667969 C 187.808594 293.972656 188.03125 293.964844 189.34375 293.574219 C 191.660156 292.886719 193.558594 290.484375 193.871094 287.84375 C 194.265625 284.488281 191.746094 281.613281 188.191406 281.355469 Z M 187.996094 285.597656 C 189.414062 285.597656 189.996094 287.976562 188.808594 288.910156 C 187.558594 289.894531 186.339844 289.226562 186.339844 287.554688 C 186.339844 286.644531 187.226562 285.597656 187.996094 285.597656 Z M 153.648438 292.425781 C 153.730469 292.34375 154.535156 292.957031 155.433594 293.789062 C 158.582031 296.703125 163.679688 299.71875 168.089844 301.277344 C 173.40625 303.152344 177.171875 303.699219 184.792969 303.710938 C 194.171875 303.722656 200.34375 302.511719 207.046875 299.347656 C 208.421875 298.699219 210.128906 298.011719 210.84375 297.824219 C 211.554688 297.632812 213.359375 296.828125 214.847656 296.035156 L 217.550781 294.589844 L 216.941406 295.796875 C 216.316406 297.03125 215.0625 298.738281 209.4375 306.015625 C 204.234375 312.746094 200.59375 315.746094 195.675781 317.359375 C 194.980469 317.585938 194.261719 318.003906 194.074219 318.289062 C 193.804688 318.703125 193.179688 318.925781 191.050781 319.367188 C 183.902344 320.851562 179.660156 322.167969 176.582031 323.859375 C 174.34375 325.089844 171.914062 327.628906 170.667969 330.042969 C 170.113281 331.121094 169.636719 332.003906 169.609375 332 C 169.582031 332 169 331.304688 168.316406 330.460938 C 167.546875 329.515625 166.035156 328.160156 164.386719 326.941406 C 162.914062 325.847656 161.253906 324.441406 160.699219 323.8125 C 159.289062 322.207031 157.511719 318.441406 156.007812 313.878906 C 154.597656 309.597656 154.128906 307.578125 153.75 304.109375 C 153.476562 301.621094 153.398438 292.675781 153.648438 292.425781 Z M 134.789062 319.695312 C 134.859375 319.625 135.394531 319.933594 135.984375 320.375 C 136.921875 321.074219 137.34375 321.75 139.347656 325.699219 C 142.945312 332.785156 145.414062 336.964844 149.375 342.65625 C 153.53125 348.625 159.457031 355.414062 164.484375 359.972656 C 168.449219 363.5625 168.492188 363.605469 168.492188 363.886719 C 168.492188 364.027344 167.945312 364.136719 167.21875 364.136719 C 166.132812 364.136719 165.726562 363.992188 164.4375 363.160156 C 162.359375 361.816406 160.117188 359.617188 158.542969 357.382812 C 157.652344 356.117188 156.972656 355.402344 156.4375 355.179688 C 156.003906 355 154.621094 353.917969 153.359375 352.773438 C 147.976562 347.878906 144.238281 345.210938 137.074219 341.128906 C 135.175781 340.050781 133.472656 339.074219 133.289062 338.964844 C 133.003906 338.792969 132.996094 337.980469 133.238281 333.421875 C 133.605469 326.542969 134.328125 320.15625 134.789062 319.695312 Z M 185.421875 332.800781 C 185.484375 332.777344 185.53125 332.777344 185.550781 332.800781 C 185.621094 332.871094 185.40625 333.515625 185.078125 334.234375 C 184.335938 335.859375 183.507812 336.433594 180.097656 337.695312 C 178.691406 338.21875 176.855469 338.972656 176.015625 339.371094 C 174.320312 340.179688 173.964844 340.25 173.964844 339.773438 C 173.964844 339.574219 174.351562 339.382812 174.960938 339.285156 C 176.429688 339.050781 178 338.179688 180.710938 336.09375 C 183.378906 334.039062 184.957031 332.933594 185.421875 332.800781 Z M 223.199219 333.925781 L 223.078125 334.808594 C 222.546875 338.699219 221.632812 343.53125 220.835938 346.675781 C 220.320312 348.703125 219.878906 350.335938 219.820312 350.441406 C 219.789062 350.476562 219.75 350.5 219.71875 350.535156 C 219.605469 350.59375 218.484375 350.917969 217.074219 351.285156 C 211.1875 352.832031 206.355469 354.859375 202.820312 357.277344 C 201.808594 357.96875 199.53125 359.988281 197.765625 361.761719 C 196 363.535156 193.84375 365.492188 192.980469 366.105469 C 190.90625 367.582031 188.074219 368.980469 185.867188 369.617188 C 183.945312 370.175781 178.527344 370.457031 176.300781 370.117188 C 174.269531 369.808594 173.722656 368.65625 174.652344 366.632812 C 175.191406 365.453125 175.710938 365.011719 176.972656 364.652344 C 177.859375 364.398438 178.582031 363.765625 179.9375 362.054688 C 180.085938 361.863281 180.800781 361.753906 181.886719 361.753906 C 185.207031 361.753906 190.800781 360.507812 194.65625 358.910156 C 198.957031 357.128906 203.328125 354.242188 206.425781 351.144531 C 207.972656 349.59375 208.683594 348.621094 209.996094 346.257812 C 213.746094 339.527344 214.53125 338.207031 216.007812 336.128906 L 217.414062 334.152344 C 217.582031 334.050781 217.773438 333.988281 217.988281 333.945312 L 220.378906 333.933594 Z M 223.199219 333.925781 " fill-opacity="1" fill-rule="nonzero"/></svg>