<svg xmlns="http://www.w3.org/2000/svg" xmlns:xlink="http://www.w3.org/1999/xlink" width="500" zoomAndPan="magnify" viewBox="0 0 375 374.999991" height="500" preserveAspectRatio="xMidYMid meet" version="1.0"><defs><clipPath id="85d39076f7"><path d="M 46 7 L 337 7 L 337 368.140625 L 46 368.140625 Z M 46 7 " clip-rule="nonzero"/></clipPath></defs><g clip-path="url(#85d39076f7)"><path stroke-linecap="round" transform="matrix(0.022154, 0, 0, -0.0221411, 38.991121, 368.046127)" fill="none" stroke-linejoin="round" d="M 12337.675935 2383.471206 C 12620.673314 3415.558857 12903.670693 4447.646509 13111.731072 5421.513832 C 13319.967773 6395.20473 13453.091151 7310.851723 13369.866999 8243.08269 C 13286.642848 9175.313656 12986.894845 10124.128595 12674.804277 10802.483641 C 12362.713709 11480.838688 12038.104254 11888.733842 11734.300837 12346.380913 C 11430.49742 12804.20441 11147.50004 13311.95625 10897.827586 13907.038583 C 10648.155132 14502.297342 10431.63128 15184.710168 10090.447524 15625.773268 C 9749.087445 16067.012792 9283.067462 16266.726163 8712.840966 16283.486561 C 8142.790794 16300.070533 7468.534109 16133.525107 6973.244615 15696.696214 C 6478.131443 15259.51447 6161.809138 14552.049259 6145.234837 13932.090967 C 6128.484213 13311.95625 6411.481593 12779.152026 6652.866896 12496.342367 C 6894.2522 12213.356282 7094.025428 12180.011912 7206.342768 11988.414102 C 7318.83643 11797.169142 7343.697882 11447.494317 7385.309958 11226.962768 C 7426.922033 11006.431218 7485.284733 10914.866519 7560.045411 10889.814135 C 7634.982412 10864.938176 7726.670036 10906.574532 7778.685131 10968.852642 C 7830.700226 11031.307177 7843.042791 11114.57989 7909.692641 11158.333349 C 7976.342491 11201.910384 8096.946981 11206.144589 8176.115719 11270.539802 C 8255.108134 11335.11144 8292.488473 11460.020509 8238.533832 11539.059017 C 8184.402869 11618.097524 8038.760604 11651.441894 7943.017566 11636.975025 C 7847.274527 11622.33173 7801.430715 11559.877195 7778.685131 11460.020509 C 7755.763225 11360.163824 7755.763225 11222.728562 7709.566768 11132.398839 C 7663.370311 11042.069117 7570.977397 10998.668508 7560.574378 10967.264815 C 7550.171359 10935.861122 7621.581913 10916.454346 7680.120935 10852.764834 C 7738.836279 10789.251748 7784.680091 10681.455927 7870.020111 10614.943611 C 7955.536453 10548.607721 8080.37268 10523.555337 8226.014945 10554.782605 C 8371.65721 10586.009872 8538.105513 10673.340366 8531.93423 10681.808777 C 8525.586626 10690.100763 8346.619436 10619.354242 8257.224002 10527.789543 C 8167.652246 10436.224844 8167.652246 10323.841966 8226.014945 10267.73874 C 8284.201322 10211.459088 8400.750399 10211.459088 8492.261701 10219.751075 C 8583.949325 10228.043061 8650.422853 10244.803459 8677.576495 10190.64091 C 8704.553816 10136.654787 8692.034929 10011.745717 8802.412723 9943.116299 C 8912.614194 9874.310455 9145.712347 9861.960689 9505.762596 10113.719506 C 9865.636522 10365.478323 10352.638865 10881.522148 10546.064488 11358.046721 C 10739.666434 11834.571293 10639.691659 12271.576612 10477.475092 12704.347724 C 10315.082204 13137.118837 10090.447524 13565.83217 10055.006731 13865.402226 C 10019.74226 14165.148709 10173.671675 14335.751915 10340.119978 14298.173339 C 10506.568281 14260.771188 10685.535471 14015.36368 10747.953585 13755.136452 C 10810.371698 13494.909223 10756.240735 13220.39155 10660.674019 13074.664302 C 10564.754658 12929.11348 10427.575866 12912.353082 10410.825242 12991.568015 C 10394.250941 13070.606522 10498.28113 13245.267509 10502.336544 13447.274409 C 10506.568281 13648.928457 10410.825242 13877.928418 10321.429808 13932.090967 C 10231.858052 13986.07709 10148.633901 13865.402226 10134.175468 13699.033225 C 10119.540712 13532.487799 10173.671675 13320.248236 9940.573522 13114.183556 C 9707.475369 12908.118876 9187.324423 12708.58193 8923.017213 12402.660565 C 8658.886326 12096.739199 8650.422853 11684.609839 8719.188571 11233.137651 C 8787.777967 10781.665463 8933.420232 10290.674021 8871.002119 9878.544661 C 8808.584005 9466.591727 8538.105513 9133.677299 8303.067814 8763.184296 C 8067.853793 8392.867718 7868.080565 7984.972564 7859.793414 7537.558156 C 7851.506264 7090.320174 8034.528868 6603.386513 8492.261701 6420.257114 C 8950.170856 6237.127715 9682.613917 6357.802579 10171.555807 6838.384932 C 10660.674019 7319.14371 10906.114737 8159.809977 10720.976264 8665.444713 C 10535.661469 9171.07945 9919.767484 9341.682657 9349.717312 9075.280545 C 8779.490816 8809.054858 8255.108134 8105.647428 7932.614547 7531.383273 C 7610.12096 6957.119118 7489.340147 6511.821813 7177.249579 6091.400467 C 6865.159011 5671.155546 6361.582366 5275.786584 6190.902327 4872.125636 C 6020.222287 4468.464688 6182.615176 4056.335328 6571.758613 4087.562595 C 6960.90205 4118.789863 7576.796035 4593.197332 7749.41562 4992.8005 C 7922.211528 5392.227242 7651.733036 5716.849683 7250.070712 5596.174819 C 6848.408388 5475.499956 6315.738554 4909.527787 6005.763854 4466.347585 C 5695.612832 4023.167383 5608.333267 3702.602722 5641.658192 3735.947093 C 5674.983117 3769.291463 5828.912533 4156.192013 5764.378551 4322.73744 C 5699.844569 4489.282866 5416.84719 4435.120317 5144.252829 4379.017091 C 4871.658469 4322.73744 4609.467127 4264.517111 4561.683769 3916.959389 C 4513.724089 3569.578092 4680.348714 2932.682977 4871.658469 2466.567493 C 5063.144546 2000.628436 5279.492075 1705.116159 5502.187209 1559.388911 C 5724.882343 1413.838089 5953.74876 1417.895869 6145.234837 1521.98676 C 6336.544592 1625.901227 6490.65033 1829.848804 6411.481593 1917.355722 C 6332.489178 2004.686216 6020.222287 1975.576052 5770.549833 2002.569113 C 5520.877379 2029.7386 5333.623038 2112.834888 5327.451756 1990.042921 C 5321.104151 1867.42738 5496.015927 1538.570733 5868.40874 1486.525287 C 6240.801553 1434.479842 6811.028048 1659.245597 7362.388052 2040.147689 C 7913.924377 2420.873356 8446.594211 2957.735361 8902.211175 3267.714507 C 9358.004462 3577.870078 9736.74488 3660.966366 10273.470128 4131.316055 C 10810.371698 4601.665744 11505.43442 5458.915983 11763.394025 5956.258734 C 12021.35363 6453.601484 11842.562763 6590.86032 11700.975912 6416.022908 C 11559.565383 6241.361921 11455.358872 5754.428259 11332.638513 5327.83203 C 11209.918154 4901.2358 11068.331303 4534.977003 10891.479981 4210.354562 C 10714.62866 3885.732121 10502.336544 3602.746037 10344.351715 3421.733741 C 10186.01424 3240.721445 10082.160373 3161.682938 10165.208202 3298.941774 C 10248.608676 3436.377036 10519.087168 3790.109641 10706.341509 3948.186656 C 10893.59585 4106.263671 10997.626039 4068.86152 11051.757002 3991.940115 C 11105.887965 3914.842286 11109.943379 3798.401628 11020.547945 3621.447112 C 10931.152511 3444.669022 10747.953585 3207.377075 10675.132452 2993.020409 C 10602.31132 2778.840168 10639.691659 2587.242357 10739.666434 2551.957309 C 10839.464887 2516.672262 11001.857775 2637.347125 11141.152436 2866.170661 C 11280.623418 3094.994197 11397.172495 3432.14283 11515.837439 3686.01875 C 11634.326062 3939.89467 11755.106875 4110.497876 11852.965782 4179.127295 C 11950.648366 4247.933138 12025.585367 4214.588768 12015.182348 4095.854582 C 12004.779329 3977.29682 11909.03629 3773.349243 11823.696271 3519.649749 C 11738.356251 3265.597404 11663.41925 2961.969566 11634.326062 2805.833229 C 11605.232873 2649.696892 11621.983497 2641.404906 11682.285742 2780.780845 C 11742.587988 2920.33321 11846.618177 3207.377075 11915.383895 3471.662084 C 11983.973291 3735.947093 12017.298216 3977.29682 12073.368725 4108.380774 C 12129.615556 4239.464727 12208.784293 4260.282905 12254.451783 4243.698932 C 12300.295595 4226.938535 12312.63816 4172.952411 12291.832122 4087.562595 C 12271.026085 4002.349205 12217.071444 3885.732121 12185.862387 3696.427839 C 12154.65333 3507.123557 12146.36618 3244.955651 12042.159668 2980.670642 C 11938.129479 2716.385633 11738.356251 2449.983521 11636.44193 2248.153047 C 11534.527609 2046.322573 11530.295872 1909.063736 11368.079306 1802.855742 C 11205.686417 1696.824173 10885.308699 1621.843446 10494.049394 1451.240239 C 10102.966411 1280.637033 9641.001842 1014.234921 8939.767837 766.71031 C 8238.533832 519.009273 7297.85407 290.185737 6450.9778 177.80286 C 5604.10153 65.419982 4850.852431 69.477763 4374.429429 50.776687 C 3897.830104 32.075612 3698.056876 -9.560745 3531.608573 65.419982 C 3365.16027 140.224284 3232.036892 331.645669 3306.973893 383.691114 C 3381.734571 435.73656 3664.731951 348.406066 3777.225613 267.250456 C 3889.542953 186.094846 3831.356576 111.114119 3658.560668 163.159565 C 3485.941083 215.20501 3198.711967 394.100203 2734.63153 956.014592 C 2270.727414 1517.752555 1629.795655 2462.509713 1167.831086 3286.415582 C 705.866516 4110.497876 422.869137 4813.905307 379.141193 5103.066275 C 335.413249 5392.227242 531.131063 5267.494598 968.057858 5240.501536 C 1404.984653 5213.332049 2083.473074 5284.07857 2545.261321 5232.033125 C 3007.22589 5179.987679 3252.84293 5005.326692 3477.47761 4578.730462 C 3702.288612 4152.134233 3906.117254 3473.779187 4108.006351 2986.845525 C 4309.895447 2499.911864 4509.668675 2204.399587 4482.515032 2002.569113 C 4455.537712 1800.738639 4201.633521 1692.589967 4172.540332 1715.525248 C 4143.447144 1738.284104 4338.988635 1892.303338 4907.099262 1921.413503 C 5475.209889 1950.523668 6415.713329 1854.901188 7177.249579 1843.433547 C 7938.785829 1831.965907 8521.531212 1904.82953 8854.427817 1946.465887 C 9187.324423 1988.102244 9270.548574 1998.511333 9407.903689 2157.646899 C 9545.258803 2316.782465 9736.74488 2624.820933 9928.054635 2932.682977 " stroke="#000000" stroke-width="42.875999" stroke-opacity="1" stroke-miterlimit="22.926001"/></g><path stroke-linecap="round" transform="matrix(0.0186524, 0, 0, -0.0186415, 38.991121, 368.046127)" fill="none" stroke-linejoin="round" d="M 203.197832 5774.198063 C 74.611885 6644.231338 -53.76464 7514.055069 109.376163 8547.114811 C 272.516967 9580.174553 727.175097 10776.470308 1316.701875 11593.279004 C 1906.01923 12410.087701 2630.205234 12847.409341 3249.260707 13545.615236 C 3868.316181 14243.82113 4382.450547 15202.701735 4965.694625 15716.717059 C 5548.938702 16230.732383 6201.292491 16299.882427 6626.631349 16213.130554 C 7051.970208 16126.588227 7250.294137 15883.724892 7220.556019 15859.208058 C 7191.027324 15834.481679 6933.436582 16027.68271 6513.123884 15990.802686 C 6092.601763 15953.922663 5509.357686 15687.171131 4942.658054 15031.083899 C 4375.748999 14374.787122 3825.593814 13329.36419 3232.506838 12558.236431 C 2639.210439 11787.318218 2003.191673 11290.485632 1674.187563 10591.022463 C 1344.97403 9891.559295 1322.775153 8989.465544 1286.54491 8227.976883 C 1250.314668 7466.278675 1200.05306 6845.185556 1100.367537 6378.946626 C 1000.891437 5912.707695 851.991423 5601.322954 1064.974988 5699.390288 C 1277.958552 5797.457623 1852.616272 6304.767488 2110.416437 6949.120167 C 2368.216602 7593.2633 2308.740365 8374.239702 2428.739955 9195.867947 C 2548.530121 10017.705738 2847.586689 10880.195373 3223.29221 11374.513412 C 3598.99773 11868.831451 4051.14278 11994.768349 4466.429317 12498.93503 C 4881.506431 13003.101712 5259.725032 13885.288632 5676.268109 14326.591637 C 6092.601763 14767.685097 6547.259893 14767.685097 6924.640801 14780.048287 C 7302.021709 14792.411476 7601.706547 14817.137855 7670.397411 14823.214677 C 7738.878852 14829.291499 7576.156896 14816.92831 7530.083755 14695.810961 C 7484.010615 14574.693612 7554.376866 14345.031649 7683.591084 14121.446508 C 7812.805301 13897.861367 8000.448638 13680.353048 8035.212917 13383.636497 C 8069.767773 13087.129492 7951.024723 12711.414255 7859.716135 12555.721884 C 7768.198124 12400.029513 7703.90515 12464.360008 7558.146487 12531.20505 C 7412.387823 12597.840547 7184.954046 12666.990591 7036.682302 12713.928802 C 6888.410558 12760.867013 6819.300847 12785.802938 6895.740376 12810.319772 C 6972.389329 12835.046151 7194.796945 12859.77253 7375.319887 12780.773844 C 7555.633406 12701.565612 7694.062252 12518.632315 7718.774209 12385.361322 C 7743.486167 12251.880783 7654.481235 12167.853003 7565.476304 12125.73434 C 7476.680797 12083.825223 7387.675866 12083.825223 7350.60793 12061.403845 C 7313.539994 12039.401559 7328.409053 11994.768349 7318.356731 11975.071063 C 7308.513833 11955.373778 7273.958977 11960.193327 7202.336186 11982.405159 C 7130.503971 12004.616991 7021.813243 12044.221107 6942.860634 12118.400245 C 6863.698601 12192.579382 6814.274686 12301.333542 6792.07581 12377.817681 C 6769.667509 12454.511366 6774.69367 12498.93503 6762.337691 12508.993218 C 6749.981713 12518.632315 6720.453018 12494.115482 6772.18059 12417.421797 C 6824.117585 12340.728112 6957.52027 12212.276668 7091.132378 12138.09753 C 7224.535063 12063.918392 7357.937748 12044.221107 7387.675866 11967.527422 C 7417.20456 11891.043283 7343.068689 11757.562744 7239.404122 11569.600353 C 7135.530132 11381.847508 7002.127447 11139.612809 6759.824611 10914.770395 C 6517.731199 10689.92798 6166.737635 10482.268304 5857.838169 10343.968217 C 5548.938702 10205.458584 5281.923909 10136.30854 5064.542454 10141.128089 C 4846.951575 10146.157183 4678.994035 10225.365415 4592.502184 10306.878648 C 4506.010334 10388.391881 4500.984173 10472.419661 4557.947329 10482.268304 C 4614.701061 10492.116947 4733.234687 10427.995997 4839.621757 10452.512831 C 4945.799405 10477.23921 5039.830496 10591.022463 5047.160314 10702.29117 C 5054.699556 10813.559876 4975.537523 10922.10449 4908.731469 11050.765481 C 4842.134838 11179.216925 4787.684762 11327.575201 4757.946644 11463.360741 C 4728.41795 11599.355827 4723.391789 11722.987723 4753.129907 11722.987723 C 4782.868025 11722.987723 4846.951575 11599.355827 4935.956506 11478.238477 C 5024.961437 11357.121128 5138.678326 11238.518326 5299.306048 11159.51964 C 5459.933771 11080.311408 5667.472328 11040.707292 5823.283313 10979.10089 C 5978.884875 10917.284942 6082.758865 10833.257162 6102.444661 10843.105804 C 6122.339881 10852.954447 6058.046908 10956.679512 5991.240853 11065.433672 C 5924.434799 11174.397377 5855.325088 11287.971085 5766.320157 11330.089748 C 5677.315226 11371.998865 5568.624499 11342.243392 5472.28975 11384.362055 C 5375.955001 11426.480717 5291.766807 11540.054425 5163.390283 11604.384921 C 5034.804336 11668.50587 4861.820634 11683.383607 4819.726538 11646.294038 C 4777.841864 11609.414015 4866.846795 11520.35714 4982.867341 11438.634362 C 5099.097309 11357.121128 5242.342893 11282.941991 5324.018006 11339.93839 C 5405.483696 11396.725244 5425.378915 11584.47809 5405.483696 11752.53365 C 5385.797899 11920.589211 5326.531086 12068.947486 5358.572861 12172.672552 C 5390.614636 12276.607163 5514.383846 12335.908564 5519.200584 12316.001733 C 5524.226745 12296.304448 5410.509856 12197.398931 5378.258658 12118.400245 C 5346.216883 12039.401559 5395.640797 11980.100157 5457.420691 11960.193327 C 5519.200584 11940.496042 5593.336456 11960.193327 5647.786531 11942.801043 C 5702.027183 11925.618305 5736.791462 11871.136452 5734.278382 11819.378693 C 5731.765302 11767.411387 5692.184285 11717.958629 5721.922403 11685.898154 C 5751.451098 11653.628133 5850.298927 11638.959942 5926.94788 11648.808585 C 6003.596832 11658.657228 6058.046908 11693.232249 6097.627924 11683.383607 C 6136.999517 11673.534964 6161.711474 11619.053112 6147.051839 11592.021731 C 6132.18278 11564.780805 6077.732704 11564.780805 6082.758865 11564.780805 C 6087.575602 11564.780805 6151.868576 11564.780805 6208.831732 11596.841279 C 6265.585464 11628.901754 6315.009379 11693.232249 6315.009379 11769.925934 C 6315.009379 11846.410073 6265.585464 11935.466948 6285.271261 12111.066149 C 6305.166481 12286.455805 6394.171412 12548.387789 6525.061016 12689.411968 C 6656.160044 12830.017057 6829.143746 12849.923888 7002.127447 12822.682962 C 7175.111148 12795.442035 7348.094849 12721.472443 7486.523695 12632.415569 C 7624.952541 12543.358694 7728.617107 12439.633629 7891.75791 12414.90725 C 8054.898713 12390.180871 8277.306329 12444.662723 8400.866116 12518.632315 C 8524.425903 12592.811453 8549.13786 12686.687876 8583.902139 12704.080159 C 8618.456995 12721.472443 8662.854748 12662.171042 8658.038011 12615.023285 C 8653.01185 12568.085074 8598.561775 12533.510052 8564.006919 12523.661409 C 8529.452063 12513.812767 8514.583004 12528.690503 8539.294962 12498.93503 C 8564.006919 12469.389102 8628.299893 12395.209965 8719.817904 12360.634943 C 8811.126492 12326.059921 8929.660118 12330.87947 9011.335231 12367.969038 C 9092.800921 12405.058607 9137.408098 12474.208651 9125.05212 12508.993218 C 9112.696141 12543.358694 9043.58643 12543.358694 9045.890087 12484.057293 C 9048.403167 12424.755892 9122.539039 12306.15309 9117.722302 12224.639857 C 9112.696141 12143.126624 9028.717371 12098.70296 9045.890087 12054.06975 C 9063.272226 12009.646085 9181.805852 11965.012875 9325.260859 11925.618305 C 9468.506442 11886.014189 9636.673406 11851.439167 9740.128549 11887.481008 C 9843.583692 11923.522849 9882.536439 12030.181553 9872.69354 12035.210647 C 9862.850642 12040.030195 9804.002676 11943.220134 9824.107319 11870.088724 C 9844.211962 11797.16686 9943.059792 11747.714102 10004.839685 11671.020417 C 10066.619578 11594.326732 10091.331536 11490.601667 10093.844616 11359.635675 C 10096.357697 11228.669684 10076.462477 11070.462766 10034.158956 10907.436299 C 9991.646013 10744.200287 9926.515346 10576.144727 9832.693677 10482.268304 C 9738.662585 10388.391881 9615.940492 10368.694596 9539.91981 10311.698196 C 9463.689704 10254.911342 9433.951586 10161.03492 9357.302634 10037.403023 C 9280.653681 9913.771127 9157.093895 9760.593303 8986.623274 9612.444574 C 8816.152653 9464.086298 8598.561775 9320.757117 8442.960213 9110.582894 C 8287.149228 8900.618216 8193.327559 8623.808496 8067.254692 8386.602892 C 7941.181825 8149.187742 7783.067183 7951.586254 7731.130188 7763.623862 C 7679.193193 7575.871017 7733.643268 7397.966814 7815.108958 7551.144638 C 7896.784071 7704.532007 8005.474799 8188.791858 8074.58451 8520.08343 C 8143.903645 8851.165457 8173.432339 9029.06966 8143.903645 9165.064746 C 8114.165526 9301.059832 8025.160595 9394.936255 7926.312766 9464.086298 C 7827.464937 9533.236342 7718.774209 9577.869552 7654.481235 9656.868238 C 7590.188262 9735.866924 7570.502465 9849.650178 7491.549856 9913.771127 C 7412.387823 9978.101622 7273.958977 9992.979359 7192.493288 10123.945351 C 7110.818174 10254.911342 7086.106217 10502.175135 7108.305094 10712.139813 C 7130.503971 10922.10449 7199.823105 11095.189145 7276.472058 11265.759253 C 7353.12101 11436.32936 7437.09978 11604.384921 7555.633406 11690.717702 C 7674.376455 11777.26003 7827.464937 11782.289124 8007.987879 11727.807271 C 8188.301398 11673.534964 8396.049379 11559.751711 8494.897208 11436.32936 C 8593.745037 11312.697464 8583.902139 11179.216925 8544.321123 11060.614123 C 8504.740106 10942.011321 8435.420972 10838.286256 8339.086223 10764.107118 C 8242.751474 10689.92798 8119.191687 10645.504316 8074.58451 10593.53701 C 8030.186756 10541.569705 8064.741612 10482.268304 8105.579168 10448.950556 C 8146.416725 10415.632807 8193.327559 10408.089166 8186.626011 10421.919175 C 8179.71504 10435.958729 8119.191687 10471.162388 8113.11841 10498.193769 C 8106.835709 10525.434695 8155.003083 10544.712889 8190.186209 10533.187882 C 8225.369334 10521.87242 8247.568211 10479.753757 8269.976512 10432.815545 C 8292.175388 10385.877334 8314.374265 10333.910029 8357.096632 10320.499111 C 8399.609576 10306.878648 8462.646009 10331.395482 8509.556844 10330.347754 C 8556.677101 10329.09048 8587.462336 10301.849554 8575.106357 10282.152269 C 8562.750379 10262.245438 8507.253187 10250.091794 8519.609165 10233.328147 C 8531.965144 10216.5645 8612.174293 10195.609941 8651.75531 10229.556326 C 8691.336326 10263.502711 8690.079786 10352.559586 8681.493428 10409.975077 C 8672.697647 10467.390567 8656.781471 10493.37422 8628.299893 10487.926035 C 8599.818315 10482.268304 8559.190182 10445.178735 8517.724355 10363.036865 C 8476.258528 10280.894995 8434.373855 10153.491278 8381.18032 10102.362155 C 8327.986784 10051.023487 8263.693811 10075.749866 8235.212233 10114.725345 C 8206.940078 10153.491278 8214.269896 10206.715857 8177.83023 10235.214057 C 8141.390564 10263.502711 8061.181414 10267.274532 7988.720929 10248.624975 C 7916.469868 10230.184963 7852.176894 10189.323574 7809.663951 10178.217658 C 7766.941584 10167.111742 7745.999247 10185.761299 7754.585605 10173.398109 C 7763.171963 10161.03492 7801.496439 10117.868529 7865.789413 10095.447151 C 7930.082387 10073.235319 8020.343858 10071.978045 8077.72586 10049.137576 C 8135.317286 10026.297107 8160.029244 9981.873443 8191.442749 9959.661611 C 8222.856254 9937.240233 8261.18073 9937.240233 8279.19114 9901.407938 C 8296.992126 9865.575642 8294.688469 9793.911052 8312.489455 9756.821483 C 8330.499865 9719.731914 8368.824341 9717.426913 8351.442201 9733.352377 C 8334.269485 9749.487387 8261.18073 9784.062409 8192.071019 9837.915625 C 8122.961308 9891.559295 8057.411794 9964.481159 7977.621491 10020.220285 C 7898.040611 10075.749866 7804.00952 10114.096708 7765.685043 10085.598508 C 7727.360567 10057.100309 7744.742707 9961.966612 7809.03568 9879.196106 C 7873.328654 9796.425599 7984.532462 9726.018282 8077.72586 9702.549176 C 8171.128682 9679.08007 8246.521094 9702.549176 8321.913507 9726.018282 " stroke="#000000" stroke-width="50.924" stroke-opacity="1" stroke-miterlimit="22.926001"/></svg>