<svg xmlns="http://www.w3.org/2000/svg" xmlns:xlink="http://www.w3.org/1999/xlink" width="500" zoomAndPan="magnify" viewBox="0 0 375 374.999991" height="500" preserveAspectRatio="xMidYMid meet" version="1.0"><path fill="#000000" d="M 79.523438 63.046875 C 73.242188 66.386719 70.839844 68.925781 67.363281 76.277344 C 64.023438 83.363281 63.621094 85.769531 64.957031 89.375 C 66.027344 92.316406 69.5 92.050781 69.5 89.109375 C 69.636719 79.21875 86.476562 60.105469 89.148438 66.921875 C 90.484375 70.53125 85.273438 89.242188 80.195312 98.867188 C 71.371094 115.839844 62.550781 139.09375 63.085938 144.574219 C 63.488281 148.984375 63.886719 149.652344 66.828125 149.652344 C 69.5 149.652344 70.570312 148.449219 73.378906 140.964844 C 78.992188 125.996094 102.914062 89.910156 113.605469 80.289062 C 123.761719 71.199219 124.03125 74.273438 114.941406 91.648438 C 104.917969 110.359375 101.578125 117.976562 99.171875 127.332031 C 97.167969 134.816406 97.167969 136.019531 98.90625 139.226562 C 99.972656 141.230469 101.578125 142.96875 102.246094 143.101562 C 103.046875 143.371094 106.253906 138.691406 109.597656 132.679688 C 120.289062 113.164062 141.136719 87.503906 144.480469 89.644531 C 146.617188 90.980469 145.816406 94.1875 140.46875 105.011719 C 137.53125 110.894531 135.390625 116.507812 135.792969 117.441406 C 136.59375 119.449219 130.046875 135.886719 127.90625 137.089844 C 127.238281 137.625 126.300781 142.570312 125.902344 148.046875 C 125.367188 156.46875 125.769531 159.140625 128.039062 163.417969 L 130.714844 168.628906 L 126.835938 171.570312 C 116.8125 178.921875 96.230469 206.722656 84.871094 228.238281 C 81.394531 234.652344 78.457031 239.867188 78.1875 239.867188 C 76.851562 239.867188 90.351562 203.113281 95.695312 192.019531 C 102.113281 178.789062 102.378906 176.25 98.503906 173.84375 C 94.894531 171.703125 89.550781 178.519531 83.535156 192.953125 C 80.863281 199.238281 77.921875 206.1875 76.851562 208.457031 C 75.917969 210.597656 73.777344 217.277344 72.175781 223.160156 C 70.703125 229.039062 68.566406 235.988281 67.628906 238.53125 C 66.695312 241.070312 65.089844 249.085938 64.023438 256.4375 C 62.417969 269 62.417969 269.671875 64.824219 271.542969 C 69.367188 274.75 71.371094 273.144531 73.910156 263.253906 C 76.984375 250.824219 89.816406 225.164062 101.308594 207.789062 C 110.800781 193.488281 124.699219 177.050781 127.238281 177.050781 C 132.183594 177.050781 119.488281 219.285156 108.125 241.070312 C 104.519531 248.019531 101.84375 253.898438 102.113281 254.300781 C 102.511719 254.566406 103.714844 252.964844 104.917969 250.691406 C 105.988281 248.417969 107.324219 246.546875 107.726562 246.546875 C 108.125 246.546875 107.324219 248.554688 105.988281 250.824219 C 104.519531 253.230469 103.179688 254.96875 102.78125 254.566406 C 102.378906 254.167969 100.105469 255.503906 97.703125 257.507812 C 95.296875 259.644531 92.488281 261.25 91.421875 261.25 C 89.015625 261.25 82.867188 255.371094 82.867188 253.097656 C 82.867188 252.160156 82.464844 251.761719 82.066406 252.296875 C 81.664062 252.695312 82.332031 255.101562 83.535156 257.640625 C 86.609375 264.191406 93.292969 267.265625 99.574219 265.257812 C 109.863281 261.917969 123.09375 240.933594 132.316406 213.535156 C 135.660156 203.378906 136.328125 199.238281 136.328125 188.410156 C 136.328125 181.328125 135.660156 174.378906 134.855469 172.773438 C 133.652344 170.5 133.789062 170.234375 136.058594 170.902344 C 139.265625 171.972656 146.886719 169.03125 149.558594 165.824219 C 152.230469 162.75 151.160156 162.347656 144.746094 164.085938 C 140.46875 165.15625 138.332031 165.15625 135.523438 163.820312 C 132.183594 162.347656 132.050781 161.8125 132.71875 155.933594 C 133.386719 149.785156 142.742188 124.925781 150.226562 108.890625 C 156.507812 95.390625 154.234375 84.832031 144.878906 84.832031 C 139.667969 84.832031 126.035156 99 116.414062 114.636719 C 112.402344 121.050781 109.0625 126.261719 108.792969 126.261719 C 107.726562 126.261719 112.003906 115.972656 119.886719 99.667969 C 126.4375 85.902344 128.308594 80.957031 127.640625 78.148438 C 126.570312 73.070312 122.558594 69.730469 119.085938 70.796875 C 115.476562 71.867188 103.046875 85.632812 94.492188 97.796875 C 90.75 103.140625 87.542969 107.285156 87.277344 107.019531 C 87.007812 106.882812 89.015625 100.335938 91.554688 92.449219 C 97.433594 74.539062 97.566406 65.71875 91.6875 61.84375 C 89.28125 60.242188 83.800781 60.773438 79.523438 63.046875 Z M 83.535156 203.246094 C 80.195312 210.464844 77.519531 217.277344 77.519531 218.082031 C 77.519531 219.015625 76.984375 219.820312 76.183594 219.820312 C 74.714844 219.820312 79.523438 206.320312 84.738281 195.894531 C 90.75 184.132812 89.949219 189.078125 83.535156 203.246094 Z M 76.316406 227.4375 C 75.25 229.441406 74.980469 229.441406 74.847656 227.703125 C 74.847656 225.433594 76.183594 223.425781 77.253906 224.363281 C 77.519531 224.761719 77.121094 226.101562 76.316406 227.4375 Z M 118.015625 233.851562 C 116.8125 236.390625 115.609375 238.261719 115.210938 237.996094 C 114.675781 237.328125 118.683594 229.175781 119.621094 229.175781 C 120.019531 229.175781 119.21875 231.3125 118.015625 233.851562 Z M 112.269531 239.597656 C 112.269531 240.265625 111.332031 241.871094 110.265625 243.339844 C 108.394531 245.746094 108.394531 245.613281 109.730469 242.136719 C 111.332031 238.53125 112.269531 237.59375 112.269531 239.597656 Z M 112.269531 239.597656 " fill-opacity="1" fill-rule="nonzero"/><path fill="#000000" d="M 172.011719 83.09375 C 171.476562 83.496094 171.074219 85.367188 171.074219 87.238281 C 171.074219 88.976562 169.738281 92.851562 168.136719 95.65625 C 166.128906 99.265625 165.597656 101.269531 166.53125 102.207031 C 167.46875 103.140625 169.738281 101.269531 173.480469 96.191406 C 176.554688 92.050781 179.09375 88.039062 179.09375 87.105469 C 179.09375 83.628906 174.148438 80.824219 172.011719 83.09375 Z M 172.011719 83.09375 " fill-opacity="1" fill-rule="nonzero"/><path fill="#000000" d="M 253.539062 83.09375 C 253.003906 83.496094 252.601562 85.367188 252.601562 87.238281 C 252.601562 88.976562 251.265625 92.851562 249.660156 95.65625 C 247.65625 99.265625 247.121094 101.269531 248.058594 102.207031 C 248.992188 103.140625 251.265625 101.269531 255.007812 96.191406 C 258.082031 92.050781 260.621094 88.039062 260.621094 87.105469 C 260.621094 83.628906 255.675781 80.824219 253.539062 83.09375 Z M 253.539062 83.09375 " fill-opacity="1" fill-rule="nonzero"/><path fill="#000000" d="M 206.089844 96.460938 C 203.550781 97.394531 191.792969 115.707031 188.984375 122.921875 C 186.980469 128.269531 184.441406 130.941406 184.441406 127.734375 C 184.441406 125.730469 187.246094 117.578125 189.386719 113.699219 C 191.257812 110.226562 191.257812 109.824219 188.71875 107.285156 L 186.042969 104.480469 L 183.371094 109.691406 C 181.902344 112.632812 180.03125 117.441406 179.226562 120.515625 C 178.160156 124.527344 176.289062 127.199219 172.144531 130.140625 C 169.203125 132.410156 166.128906 133.882812 165.460938 133.480469 C 163.324219 132.144531 164.394531 125.328125 167.734375 118.777344 C 171.609375 111.292969 171.210938 108.890625 166.53125 108.890625 C 162.253906 108.890625 159.714844 112.632812 157.84375 121.988281 C 156.242188 129.472656 156.910156 132.011719 161.320312 135.753906 C 166.128906 140.03125 168.402344 139.894531 173.214844 135.085938 L 177.890625 130.40625 L 179.09375 133.480469 C 180.03125 136.152344 184.171875 139.226562 185.109375 138.023438 C 185.242188 137.757812 188.449219 131.34375 192.191406 123.589844 C 195.933594 115.839844 200.746094 107.550781 202.882812 105.011719 C 206.492188 100.601562 206.761719 100.46875 207.429688 103.277344 C 207.960938 104.878906 207.695312 106.214844 206.894531 106.214844 C 206.226562 106.214844 206.089844 106.75 206.492188 107.550781 C 206.894531 108.222656 206.761719 108.890625 206.089844 108.890625 C 205.289062 108.890625 204.355469 109.824219 203.953125 111.027344 C 203.550781 112.097656 203.6875 112.632812 204.488281 112.230469 C 205.824219 111.429688 202.082031 123.457031 200.210938 125.863281 C 198.742188 127.601562 201.011719 132.945312 203.152344 132.945312 C 203.953125 132.945312 205.691406 130.941406 207.027344 128.535156 C 211.304688 121.453125 221.0625 107.6875 222.128906 107.550781 C 223.332031 107.550781 222.398438 110.09375 218.65625 118.246094 C 216.785156 122.253906 215.847656 126.933594 215.847656 132.679688 C 215.847656 140.03125 216.25 141.5 219.054688 143.773438 C 220.792969 145.109375 222.796875 146.3125 223.601562 146.3125 C 224.402344 146.3125 228.144531 142.96875 232.019531 138.960938 L 238.835938 131.742188 L 241.910156 134.949219 C 245.917969 139.226562 249.261719 139.761719 253.003906 136.957031 C 256.476562 134.28125 267.304688 118.644531 267.304688 116.507812 C 267.304688 114.503906 260.753906 120.917969 259.953125 123.722656 C 259.015625 126.664062 248.59375 134.417969 246.988281 133.480469 C 244.851562 132.144531 245.917969 125.328125 249.261719 118.777344 C 253.136719 111.292969 252.734375 108.890625 248.058594 108.890625 C 244.046875 108.890625 241.109375 112.765625 239.90625 119.582031 C 238.835938 125.195312 225.871094 140.5625 223.464844 139.09375 C 221.460938 137.890625 222.398438 133.613281 227.34375 121.320312 C 231.617188 110.761719 232.289062 104.746094 229.347656 102.339844 C 226.140625 99.667969 219.859375 104.078125 213.710938 113.566406 C 210.503906 118.246094 207.828125 121.988281 207.5625 121.71875 C 207.292969 121.453125 208.632812 117.042969 210.503906 111.964844 C 214.378906 100.871094 214.511719 100.335938 211.703125 97.664062 C 209.566406 95.390625 208.898438 95.257812 206.089844 96.460938 Z M 206.089844 96.460938 " fill-opacity="1" fill-rule="nonzero"/><path fill="#000000" d="M 130.445312 126.933594 C 129.242188 130.40625 129.511719 131.207031 131.113281 128.535156 C 131.917969 127.199219 132.316406 125.730469 131.917969 125.460938 C 131.648438 125.0625 130.980469 125.730469 130.445312 126.933594 Z M 130.445312 126.933594 " fill-opacity="1" fill-rule="nonzero"/><path fill="#000000" d="M 258.082031 164.488281 C 254.875 166.894531 245.519531 180.792969 240.039062 191.617188 C 238.167969 195.226562 233.890625 206.320312 230.550781 216.078125 C 225.070312 231.847656 223.734375 234.519531 218.121094 240.132812 C 214.777344 243.742188 211.4375 246.546875 210.769531 246.546875 C 209.433594 246.546875 210.101562 240.265625 211.839844 235.1875 C 212.640625 233.050781 212.507812 232.917969 211.304688 234.519531 C 210.101562 236.257812 209.832031 236.257812 209.832031 234.117188 C 209.832031 232.917969 211.035156 230.644531 212.640625 229.039062 C 215.847656 225.832031 215.179688 222.492188 211.304688 222.492188 C 209.566406 222.492188 206.625 225.296875 203.019531 230.109375 C 195.933594 240 188.449219 247.886719 186.179688 247.886719 C 183.105469 247.886719 184.308594 242.539062 190.453125 230.109375 C 194.863281 221.15625 195.933594 217.679688 194.730469 216.878906 C 191.257812 214.605469 187.78125 216.609375 183.503906 223.828125 C 180.164062 229.574219 178.160156 231.3125 174.953125 231.980469 C 170.273438 233.050781 170.539062 234.386719 173.214844 219.417969 C 173.882812 215.808594 173.347656 214.207031 170.539062 210.730469 C 168.535156 208.457031 165.730469 206.1875 164.257812 205.785156 C 160.515625 204.582031 155.570312 208.191406 152.363281 214.472656 C 150.894531 217.414062 149.023438 219.820312 148.222656 219.820312 C 141.804688 219.820312 130.179688 238.261719 131.78125 245.878906 C 132.183594 248.019531 134.1875 251.492188 136.058594 253.5 C 140.203125 257.910156 147.152344 258.445312 152.5 254.835938 C 156.507812 252.160156 164.660156 243.074219 166.796875 238.929688 C 168.269531 236.390625 175.753906 233.316406 177.222656 234.921875 C 177.492188 235.1875 177.089844 238.53125 176.289062 242.40625 C 175.085938 248.152344 175.21875 249.890625 176.824219 252.429688 C 180.164062 257.375 184.707031 255.503906 193.664062 245.613281 L 201.414062 236.925781 L 200.746094 243.609375 C 200.210938 249.355469 200.476562 250.558594 203.019531 251.761719 C 206.894531 253.898438 213.574219 250.824219 219.054688 244.410156 L 223.464844 239.199219 L 222.664062 243.207031 C 220.925781 251.894531 220.257812 267.398438 221.730469 270.871094 C 222.398438 272.878906 224.535156 275.417969 226.40625 276.621094 C 232.820312 280.898438 241.644531 274.082031 254.339844 254.835938 L 259.953125 246.414062 L 260.753906 250.425781 C 263.160156 262.320312 271.046875 259.78125 282.136719 243.472656 C 285.078125 239.332031 287.617188 235.855469 287.886719 235.855469 C 288.152344 235.855469 287.617188 239.199219 286.683594 243.207031 C 284.007812 254.566406 287.21875 263.921875 293.898438 263.921875 C 297.105469 263.921875 306.328125 252.964844 311.808594 242.671875 C 318.222656 230.777344 317.691406 227.4375 311.140625 237.996094 C 304.726562 248.285156 296.839844 257.507812 295.234375 256.4375 C 293.230469 255.234375 295.234375 241.601562 298.710938 233.183594 C 300.449219 229.175781 301.519531 225.164062 301.117188 224.230469 C 299.914062 221.019531 295.234375 220.753906 292.027344 223.828125 L 288.820312 226.769531 L 286.949219 222.089844 C 284.277344 215.941406 280.535156 214.875 274.789062 218.347656 C 271.714844 220.351562 267.167969 226.5 259.417969 239.597656 C 242.980469 267.265625 232.6875 277.6875 230.417969 268.734375 C 228.011719 259.246094 233.625 235.320312 240.171875 226.902344 C 247.925781 216.878906 261.15625 196.296875 264.765625 188.410156 C 269.976562 176.917969 270.378906 169.433594 265.96875 165.023438 C 262.757812 161.8125 262.089844 161.679688 258.082031 164.488281 Z M 264.230469 173.976562 C 263.695312 176.648438 261.023438 183.734375 258.214844 189.613281 C 252.734375 201.109375 240.574219 221.289062 240.574219 219.015625 C 240.574219 214.339844 253.402344 181.195312 258.214844 173.441406 C 261.957031 167.160156 265.164062 167.5625 264.230469 173.976562 Z M 248.457031 181.996094 C 244.714844 188.277344 244.582031 188.410156 244.582031 186.941406 C 244.582031 185.335938 249.660156 177.050781 250.730469 177.050781 C 251.132812 177.050781 250.0625 179.324219 248.457031 181.996094 Z M 166.796875 215.273438 C 166.933594 218.082031 166.398438 223.160156 165.328125 226.5 C 163.726562 232.113281 163.324219 232.515625 159.046875 232.515625 C 154.769531 232.515625 154.371094 232.113281 153.96875 228.503906 C 153.300781 221.15625 160.652344 208.191406 164.792969 209.527344 C 165.730469 209.792969 166.53125 212.335938 166.796875 215.273438 Z M 283.742188 220.753906 C 284.007812 221.421875 284.679688 223.960938 285.210938 226.632812 C 286.015625 230.910156 285.347656 232.382812 279.066406 240.933594 C 271.046875 252.160156 267.972656 253.5 269.308594 244.8125 C 271.582031 232.113281 281.070312 216.078125 283.742188 220.753906 Z M 150.628906 230.375 C 151.5625 231.847656 154.371094 233.585938 157.042969 234.519531 L 161.71875 236.125 L 159.449219 240.132812 C 155.304688 246.949219 147.285156 253.5 143.277344 252.964844 C 140.203125 252.5625 139.667969 252.027344 139.933594 248.554688 C 140.203125 244.277344 146.75 227.835938 148.222656 227.835938 C 148.621094 227.835938 149.824219 229.039062 150.628906 230.375 Z M 225.472656 242.804688 C 225.070312 243.875 224.667969 243.472656 224.667969 242.003906 C 224.535156 240.535156 224.9375 239.730469 225.335938 240.265625 C 225.738281 240.667969 225.871094 241.871094 225.472656 242.804688 Z M 224.132812 249.488281 C 223.734375 250.425781 223.464844 249.757812 223.464844 247.886719 C 223.464844 246.015625 223.734375 245.34375 224.132812 246.148438 C 224.402344 247.082031 224.402344 248.6875 224.132812 249.488281 Z M 224.132812 249.488281 " fill-opacity="1" fill-rule="nonzero"/></svg>